<svg width="764" height="243" viewBox="0 0 764 243" fill="none" xmlns="http://www.w3.org/2000/svg">
<rect x="0.959717" width="243" height="243" rx="60" fill="#654DF6"/>
<mask id="mask0_85_802" style="mask-type:alpha" maskUnits="userSpaceOnUse" x="0" y="0" width="244" height="243">
<rect x="0.959717" width="243" height="243" rx="60" fill="#654DF6"/>
</mask>
<g mask="url(#mask0_85_802)">
<path fill-rule="evenodd" clip-rule="evenodd" d="M124.41 339C82.2156 339 48.592 326.538 23.5391 301.615C-1.5138 276.691 -14.0403 242.913 -14.0403 200.28C-14.0403 159.287 -6.95294 126.165 7.22172 100.914C21.726 75.3342 43.977 55.3298 73.9745 40.9003C107.268 24.8311 129.849 12.6972 141.716 4.49865C153.583 -3.6999 162.154 -13.8661 167.428 -26L241.104 15.8127C235.829 33.5216 226.764 47.4591 213.908 57.6253C201.382 67.4636 181.933 77.7938 155.561 88.6159C132.157 98.1262 115.674 105.997 106.115 112.228C96.555 118.131 89.4677 125.673 84.8527 134.856C100.676 122.066 120.619 115.671 144.683 115.671C174.351 115.671 199.898 125.673 221.325 145.678C243.081 165.354 253.96 191.426 253.96 223.892C253.96 257.342 242.257 284.889 218.853 306.534C195.448 328.178 163.967 339 124.41 339ZM151.111 252.423C143.529 259.31 133.97 262.753 122.432 262.753C110.565 262.753 100.676 259.146 92.7642 251.931C84.8527 244.717 80.897 235.37 80.897 223.892C80.897 212.742 84.8527 203.888 92.7642 197.329C101.005 190.442 110.565 186.999 121.443 186.999C132.981 186.999 142.705 190.606 150.617 197.821C158.528 205.035 162.484 214.218 162.484 225.368C162.484 236.19 158.693 245.208 151.111 252.423Z" fill="#262626"/>
<path d="M73.9456 270.517C73.9456 280.173 81.7728 288 91.4281 288H153.491C163.146 288 170.974 280.173 170.974 270.517V212.297C170.974 207.166 168.72 202.294 164.809 198.973L133.778 172.614C127.251 167.07 117.668 167.07 111.141 172.614L80.11 198.973C76.1995 202.294 73.9456 207.166 73.9456 212.297L73.9456 270.517Z" fill="#FF00A8"/>
</g>
<path d="M352.02 187.56C337.38 187.56 325.68 182.94 316.92 173.7C308.28 164.46 303.96 152.76 303.96 138.6C303.96 123.24 306.24 111.36 310.8 102.96C315.36 94.56 324.54 86.94 338.34 80.1C339.9 79.38 342.36 78.18 345.72 76.5C349.2 74.82 351.42 73.74 352.38 73.26C353.46 72.66 355.14 71.76 357.42 70.56C359.7 69.24 361.2 68.22 361.92 67.5C362.76 66.66 363.84 65.58 365.16 64.26C366.6 62.94 367.68 61.62 368.4 60.3C369.24 58.86 370.02 57.24 370.74 55.44L393.06 68.22C391.38 75.3 387.9 80.94 382.62 85.14C377.46 89.22 369.66 93.24 359.22 97.2C351.78 99.96 346.38 102.72 343.02 105.48C339.78 108.12 337.44 111.18 336 114.66C342.36 109.02 350.58 106.2 360.66 106.2C369.9 106.2 378.42 109.8 386.22 117C394.02 124.08 397.92 133.56 397.92 145.44C397.92 157.8 393.72 167.94 385.32 175.86C377.04 183.66 365.94 187.56 352.02 187.56ZM337.8 158.04C341.64 161.52 346.32 163.26 351.84 163.26C357.36 163.26 361.92 161.58 365.52 158.22C369.12 154.86 370.92 150.6 370.92 145.44C370.92 140.16 369.06 135.84 365.34 132.48C361.62 129 356.94 127.26 351.3 127.26C346.26 127.26 341.82 128.88 337.98 132.12C334.14 135.24 332.22 139.44 332.22 144.72C332.22 150.12 334.08 154.56 337.8 158.04Z" fill="#262626"/>
<path d="M468.729 95.04H495.729V185.04H468.729V176.58C463.329 183.9 454.749 187.56 442.989 187.56C433.389 187.56 425.349 184.26 418.869 177.66C412.509 171.06 409.329 161.94 409.329 150.3V95.04H436.329V146.34C436.329 151.62 437.769 155.7 440.649 158.58C443.649 161.34 447.429 162.72 451.989 162.72C457.149 162.72 461.229 161.16 464.229 158.04C467.229 154.92 468.729 150.3 468.729 144.18V95.04Z" fill="#262626"/>
<path d="M580.87 59.04H607.87V185.04H580.87V176.58C574.51 183.9 565.57 187.56 554.05 187.56C542.17 187.56 532.03 183 523.63 173.88C515.23 164.64 511.03 153.36 511.03 140.04C511.03 126.72 515.23 115.5 523.63 106.38C532.03 97.14 542.17 92.52 554.05 92.52C565.57 92.52 574.51 96.18 580.87 103.5V59.04ZM543.97 156.06C547.93 160.02 553.09 162 559.45 162C565.81 162 570.97 160.02 574.93 156.06C578.89 152.1 580.87 146.76 580.87 140.04C580.87 133.32 578.89 127.98 574.93 124.02C570.97 120.06 565.81 118.08 559.45 118.08C553.09 118.08 547.93 120.06 543.97 124.02C540.01 127.98 538.03 133.32 538.03 140.04C538.03 146.76 540.01 152.1 543.97 156.06Z" fill="#262626"/>
<path d="M627.678 185.04V59.04H654.678V185.04H627.678Z" fill="#262626"/>
<path d="M698.556 150.84C701.676 159.24 708.876 163.44 720.156 163.44C727.476 163.44 733.236 161.16 737.436 156.6L759.036 169.02C750.156 181.38 737.076 187.56 719.796 187.56C704.676 187.56 692.556 183.06 683.436 174.06C674.436 165.06 669.936 153.72 669.936 140.04C669.936 126.48 674.376 115.2 683.256 106.2C692.256 97.08 703.776 92.52 717.816 92.52C730.896 92.52 741.756 97.08 750.396 106.2C759.156 115.2 763.536 126.48 763.536 140.04C763.536 143.88 763.176 147.48 762.456 150.84H698.556ZM698.016 130.68H736.716C734.076 121.2 727.716 116.46 717.636 116.46C707.196 116.46 700.656 121.2 698.016 130.68Z" fill="#262626"/>
</svg>
